<svg width="360" height="416" viewBox="0 0 360 416" fill="none" xmlns="http://www.w3.org/2000/svg">
<g filter="url(#filter0_b)">
<path fill-rule="evenodd" clip-rule="evenodd" d="M360 0H0V416H360V0ZM70.5075 162.406C72.8122 163.46 73.0434 163.93 73.2746 165.854L73.9859 165.87V159.262H73.2746C73.0185 161.62 72.7873 161.963 71.3006 161.333C68.0641 159.965 63.8994 158.069 60.5953 156.545C64.849 154.738 69.9456 152.639 71.8128 151.921C72.7624 151.518 73.0683 151.634 73.2746 153.76H73.9859V146.463H73.2746C73.1216 148.214 72.8656 148.709 70.9699 149.507C67.1785 151.147 61.1857 153.617 57.0636 155.312V156.258C59.5587 157.364 65.3882 160.049 68.5922 161.525C69.4665 161.928 70.1453 162.24 70.5075 162.406ZM57.3445 178.082H58.0559C58.2835 180.436 58.3866 180.668 60.5455 180.668H70.7387C72.9402 180.668 73.0434 180.436 73.2746 178.082H73.9859V185.783H73.2746C73.0434 183.389 72.9402 183.165 70.7387 183.165H60.5704C58.3688 183.165 58.2906 183.397 58.0807 185.783H57.3694L57.3445 178.082ZM57.1776 214.171C57.1571 214.461 57.1382 214.73 57.1382 215.033L57.853 215.148C58.0445 214.33 58.4555 213.597 59.0303 213.05C59.8613 212.225 60.7432 211.468 61.6693 210.783C62.8216 209.917 64.5359 208.685 65.3326 208.166C66.1506 210.277 67.5341 211.873 69.7357 211.873C70.4024 211.905 71.0652 211.742 71.6585 211.399C72.2518 211.057 72.7549 210.546 73.118 209.917C73.7582 208.828 73.9894 207.42 73.9894 205.321V197.996H73.278C73.0433 200.266 72.9651 200.581 70.7884 200.581H60.5703C58.4114 200.581 58.3083 200.39 58.0807 197.996H57.3693V205.684H58.0807C58.2656 203.386 58.3936 203.067 60.5703 203.067H64.5928V204.076C64.5928 205.525 64.4399 205.896 63.6183 206.47C63.2355 206.741 62.8262 207.02 62.4058 207.308L62.4022 207.31L62.4017 207.311C61.3897 208.002 60.3143 208.738 59.393 209.487C57.8068 210.751 57.3195 211.873 57.1915 213.971L57.1868 214.04L57.1776 214.171ZM66.2146 207.591C65.6776 206.873 65.4748 205.928 65.4748 204.431V203.067H71.7487C72.4138 203.067 72.6699 203.155 72.8477 203.414C73.0042 203.613 73.1038 204.104 73.1038 204.938C73.1038 207.148 72.1079 209.187 69.3658 209.187C67.9929 209.187 66.9579 208.713 66.2146 207.591ZM73.2746 247.757C73.0932 245.922 72.8371 245.315 71.6599 245.231C71.5704 245.228 71.4778 245.224 71.3808 245.22C70.5907 245.188 69.5048 245.144 67.3919 245.144H57.1205V244.05L70.5075 231.758H64.1056C61.801 231.758 60.6486 231.841 59.9053 231.901C58.6 231.957 58.2159 232.675 58.063 234.742H57.3516V227.764H58.063C58.191 229.543 58.5751 230.234 59.8413 230.349C60.6628 230.433 61.8152 230.493 64.1448 230.493H70.6605C71.3718 230.493 71.7879 230.433 72.3534 229.918C72.9936 229.372 73.1465 228.769 73.2746 227.361H73.9859V231.67L61.1039 243.851H67.3848C69.7642 243.851 70.8667 243.795 71.635 243.707C72.7873 243.62 73.1465 242.961 73.2746 240.663H73.9859V247.757H73.2746ZM58.0559 271.835H57.3446L57.3232 278.913H58.0346C58.2373 276.875 58.4436 276.615 60.67 275.698C65.1015 273.902 69.9421 271.919 74.3203 270.112L74.1673 269.19L60.7234 263.245C58.4187 262.24 58.2373 261.781 58.0346 259.969H57.3232V266.605H58.0346C58.3013 264.251 58.504 263.848 60.1685 264.478C60.8059 264.719 61.4128 264.969 62.0438 265.23C62.4691 265.406 62.9055 265.586 63.3695 265.771V271.979C61.879 272.536 60.6412 273.049 59.701 273.439L59.4786 273.531C58.5147 273.93 58.2586 273.703 58.0559 271.835ZM64.44 266.202C66.4637 267.063 68.7933 268.041 70.9948 268.963L64.44 271.576L64.44 266.202Z" fill="white" fill-opacity="0.85"/>
</g>
<defs>
<filter id="filter0_b" x="-40" y="-40" width="440" height="496" filterUnits="userSpaceOnUse" color-interpolation-filters="sRGB">
<feFlood flood-opacity="0" result="BackgroundImageFix"/>
<feGaussianBlur in="BackgroundImage" stdDeviation="20"/>
<feComposite in2="SourceAlpha" operator="in" result="effect1_backgroundBlur"/>
<feBlend mode="normal" in="SourceGraphic" in2="effect1_backgroundBlur" result="shape"/>
</filter>
</defs>
</svg>
